# xmcd
#
# Track frame offsets: 
#        150
#        12529
#        24606
#        33693
#        43413
#        56689
#        66770
#        76088
#        89885
#        100336
#        113295
#        126894
#        139929
#        152161
#        162124
#        173748
#        185284
#        198611
#        209193
#        218649
#        230491
#        242699
#        253693
#        265656
#
# Disc length: 3679 seconds
#
# Revision: 0
# Processed by: cddbd v1.5.2PL0 Copyright (c) Steve Scherf et al.
# Submitted via: ExactAudioCopy v1.0b3
#
DISCID=5e0e5d18
DTITLE=Various Artist - Rare Grooves # 06
DYEAR=1900
DGENRE=R&B
TTITLE0=Roy "Mr. Guitar" Gaines - Worried 'Bout You Baby
TTITLE1=Champion Jack Dupree and His Combo - Dirty Woman
TTITLE2=Peppermint Harris - Just Me and You
TTITLE3=Frank Brunson - Charmaine
TTITLE4=Annie Alford - Give Up and Tell
TTITLE5=The 4 Students - Hot Rotten Soda Pop (Oh, My Toe)
TTITLE6=The Deep River Boys feat. Harry Douglas - Whole Wide World
TTITLE7=Oscar Black and Sue Allan - Be My Baby
TTITLE8=Bobby and Melvin - Forever and a Day (Woo-Woo, Baby)
TTITLE9=Roy "Mr. Guitar" Gaines - All My Life
TTITLE10=Champion Jack Dupree and His Combo - Just Like a Woman
TTITLE11=The Sycamores - Darling Is It True?
TTITLE12=The Two Sweethearts - If You Asked Me
TTITLE13=Vikki Nelson - You Can't Get Away From Me
TTITLE14=The 4 Students - So Near and Yet So Far
TTITLE15=The Gypsies - Rock Around the Christmas Tree
TTITLE16=Champion Jack Dupree and His Combo - Old Time Rock and Roll
TTITLE17=Oscar Black - If I Cry Tomorrow
TTITLE18=Annie Alford - Temporarily Blue
TTITLE19=Jan Strickland w. the Howard Biggs Orch. - All the Time
TTITLE20=Big John Greer - I'll Never Stop Loving You
TTITLE21=Champion Jack Dupree - Lollipop Baby
TTITLE22=Lil McKenzie and The Four Students - The Others I Like
TTITLE23=The Deep River Boys with the Howard Biggs Orch. - (Home) How 
TTITLE23=Dear Can It Be
EXTD=
EXTT0=
EXTT1=
EXTT2=
EXTT3=
EXTT4=
EXTT5=
EXTT6=
EXTT7=
EXTT8=
EXTT9=
EXTT10=
EXTT11=
EXTT12=
EXTT13=
EXTT14=
EXTT15=
EXTT16=
EXTT17=
EXTT18=
EXTT19=
EXTT20=
EXTT21=
EXTT22=
EXTT23=
PLAYORDER=
